<svg width="38" height="48" viewBox="0 0 38 48" fill="none" xmlns="http://www.w3.org/2000/svg">
<path d="M20.875 40.22V2.84375C20.875 2.34647 20.6775 1.86956 20.3258 1.51793C19.9742 1.16629 19.4973 0.96875 19 0.96875C18.5027 0.96875 18.0258 1.16629 17.6742 1.51793C17.3226 1.86956 17.125 2.34647 17.125 2.84375V40.22L3.45252 25.6925C3.28388 25.5083 3.07877 25.3613 2.85023 25.2607C2.62169 25.1601 2.37472 25.1081 2.12502 25.1081C1.87531 25.1081 1.62834 25.1601 1.3998 25.2607C1.17126 25.3613 0.966151 25.5083 0.797515 25.6925C0.444652 26.0766 0.24884 26.5791 0.24884 27.1006C0.24884 27.6222 0.444652 28.1247 0.797515 28.5087L17.6725 46.4413C17.8412 46.6254 18.0463 46.7725 18.2748 46.8731C18.5033 46.9737 18.7503 47.0256 19 47.0256C19.2497 47.0256 19.4967 46.9737 19.7252 46.8731C19.9538 46.7725 20.1589 46.6254 20.3275 46.4413L37.2025 28.5087C37.5543 28.1249 37.7495 27.6232 37.7495 27.1025C37.7495 26.5818 37.5543 26.0801 37.2025 25.6962C37.0339 25.5121 36.8288 25.365 36.6002 25.2644C36.3717 25.1638 36.1247 25.1119 35.875 25.1119C35.6253 25.1119 35.3783 25.1638 35.1498 25.2644C34.9213 25.365 34.7161 25.5121 34.5475 25.6962L20.875 40.2162V40.22Z" fill="white"/>
</svg>
