<svg width="21" height="20" viewBox="0 0 21 20" fill="none" xmlns="http://www.w3.org/2000/svg">
<path d="M18.059 20H13.0591V12.5H15.484L16.1215 9.99991H13.0591V6.99992C13.0591 6.17155 13.7306 5.49992 14.5591 5.49992H16.0591V2.99999H14.5591C12.3514 3.00347 10.5625 4.79222 10.559 6.99992V9.99991H8.05906V12.5H10.559V20H3.05901C1.6784 20 0.559082 18.8807 0.559082 17.4999V2.49993C0.559082 1.11932 1.6784 0 3.05901 0H18.059C19.4398 0 20.5591 1.11932 20.5591 2.49993V17.4999C20.5591 18.8807 19.4398 20 18.059 20ZM14.059 18.9999H18.059C18.8875 18.9999 19.559 18.3284 19.559 17.4999V2.49993C19.559 1.67156 18.8875 0.999936 18.059 0.999936H3.05901C2.23065 0.999936 1.55902 1.67156 1.55902 2.49993V17.4999C1.55902 18.3284 2.23065 18.9999 3.05901 18.9999H9.55905V13.5H7.05912V8.99997H9.55905V6.99992C9.56253 4.23998 11.799 2.00335 14.5591 2.00005H17.059V6.50004H14.5591C14.283 6.50004 14.059 6.7238 14.059 6.99992V8.99997H17.4089L16.259 13.5H14.059V18.9999Z" fill="white"/>
<path d="M14.059 18.9999H18.059C18.8875 18.9999 19.559 18.3284 19.559 17.4999V2.49993C19.559 1.67156 18.8875 0.999936 18.059 0.999936H3.05901C2.23065 0.999936 1.55902 1.67156 1.55902 2.49993V17.4999C1.55902 18.3284 2.23065 18.9999 3.05901 18.9999H9.55905V13.5H7.05912V8.99997H9.55905V6.99992C9.56253 4.23998 11.799 2.00335 14.5591 2.00005H17.059V6.50004H14.5591C14.283 6.50004 14.059 6.7238 14.059 6.99992V8.99997H17.4089L16.259 13.5H14.059V18.9999Z" fill="white"/>
</svg>
