<svg width="28" height="47" viewBox="0 0 28 47" fill="none" xmlns="http://www.w3.org/2000/svg">
<path d="M27.3515 23.5161C27.3543 24.0619 27.2479 24.6033 27.0384 25.1076C26.829 25.6119 26.5208 26.0697 26.1324 26.4531L6.73653 45.6827C5.95571 46.1892 5.02693 46.4187 4.09981 46.3345C3.17269 46.2504 2.30066 45.8574 1.62352 45.2185C0.946328 44.5797 0.503215 43.7321 0.365227 42.8114C0.227295 41.8907 0.402355 40.9504 0.862535 40.1411L17.4874 23.5161L0.862534 6.89105C0.402354 6.08197 0.227294 5.14155 0.365226 4.22052C0.503213 3.30005 0.946326 2.45218 1.62352 1.81378C2.30065 1.17482 3.17269 0.781921 4.09981 0.697688C5.02693 0.613454 5.95571 0.842876 6.73653 1.34938L26.1324 20.7452C26.8772 21.4795 27.3133 22.4709 27.3515 23.5161Z" fill="white"/>
</svg>
