<svg width="25" height="21" viewBox="0 0 25 21" fill="none" xmlns="http://www.w3.org/2000/svg">
<path d="M22.5447 1C23.2226 1 23.734 1.61218 23.4605 2.75084L20.1421 18.8512C19.9102 19.996 19.2382 20.2715 18.3105 19.7389L10.3951 13.7211C10.3644 13.6985 10.3394 13.6686 10.3222 13.634C10.3049 13.5994 10.2959 13.5611 10.2959 13.5222C10.2959 13.4833 10.3049 13.445 10.3222 13.4104C10.3394 13.3758 10.3644 13.3459 10.3951 13.3232L14.9653 9.07468L19.5355 4.82613C19.9518 4.44658 19.4463 4.26293 18.8992 4.60575L7.42763 12.056C7.39284 12.0794 7.35334 12.0943 7.31212 12.0996C7.27091 12.1049 7.22906 12.1004 7.18975 12.0866L2.31924 10.5011C1.2369 10.1766 1.2369 9.41138 2.56306 8.86653L22.0511 1.12856C22.2056 1.05223 22.3734 1.00852 22.5447 1Z" fill="white" stroke="#F3F3F3" stroke-opacity="0.8" stroke-width="1.19645" stroke-linecap="round" stroke-linejoin="round"/>
</svg>
