<svg width="30" height="29" viewBox="0 0 30 29" fill="none" xmlns="http://www.w3.org/2000/svg">
<path d="M27.4158 9.27854L27.4146 9.26659C27.3925 9.05652 27.1724 7.18791 26.264 6.23747C25.214 5.11957 24.0236 4.98377 23.4511 4.91865C23.4038 4.91328 23.3603 4.9083 23.3215 4.90312L23.2759 4.89834C19.8255 4.64744 14.6145 4.61319 14.5623 4.61299L14.5578 4.61279L14.5532 4.61299C14.501 4.61319 9.29007 4.64744 5.80854 4.89834L5.76255 4.90312C5.72551 4.9081 5.68469 4.91268 5.64028 4.91786C5.07437 4.98317 3.89673 5.11917 2.84375 6.2775C1.97855 7.21777 1.72844 9.04636 1.70276 9.25186L1.69977 9.27854C1.692 9.36596 1.50781 11.447 1.50781 13.5363V15.4893C1.50781 17.5786 1.692 19.6596 1.69977 19.7473L1.70116 19.7604C1.72327 19.9671 1.9431 21.8015 2.84734 22.7523C3.8346 23.8328 5.08293 23.9757 5.75438 24.0526C5.86052 24.0647 5.95192 24.0751 6.01424 24.086L6.07458 24.0944C8.06684 24.284 14.3132 24.3774 14.5781 24.3811L14.586 24.3813L14.594 24.3811C14.6462 24.3809 19.8569 24.3467 23.3074 24.0958L23.353 24.091C23.3966 24.0852 23.4456 24.0801 23.4993 24.0745C24.0621 24.0148 25.2333 23.8907 26.2718 22.7481C27.137 21.8076 27.3873 19.979 27.4128 19.7737L27.4158 19.7471C27.4235 19.6594 27.6079 17.5786 27.6079 15.4893V13.5363C27.6077 11.447 27.4235 9.36616 27.4158 9.27854ZM26.0782 15.4893C26.0782 17.423 25.9094 19.4145 25.8934 19.5973C25.8285 20.1009 25.5647 21.2578 25.1431 21.716C24.4932 22.4311 23.8255 22.502 23.338 22.5536C23.2791 22.5597 23.2245 22.5657 23.1752 22.5719C19.8378 22.8132 14.8236 22.8503 14.5926 22.8516C14.3335 22.8479 8.17855 22.7537 6.24702 22.5743C6.14806 22.5581 6.04112 22.5458 5.92842 22.533C5.35673 22.4675 4.57416 22.3779 3.9724 21.716L3.95826 21.7009C3.54408 21.2694 3.2878 20.1875 3.22269 19.6033C3.21054 19.4651 3.0373 17.4501 3.0373 15.4893V13.5363C3.0373 11.6047 3.20576 9.61547 3.22209 9.42888C3.29955 8.83568 3.56837 7.74885 3.9724 7.30957C4.64226 6.5728 5.34856 6.49116 5.81571 6.4372C5.81944 6.43676 5.82314 6.43633 5.82683 6.43591C5.86725 6.43122 5.90515 6.42682 5.94037 6.42226C9.29247 6.18215 14.2758 6.14442 14.5509 6.14234C14.5537 6.14232 14.556 6.1423 14.5578 6.14229C14.739 6.14348 19.7874 6.17972 23.1433 6.42226C23.1837 6.42734 23.2278 6.43242 23.2751 6.43787L23.2779 6.43819C23.7584 6.49295 24.4846 6.57579 25.1511 7.28667L25.1573 7.29324C25.5714 7.72475 25.8277 8.82553 25.8928 9.42152C25.9044 9.55194 26.0782 11.5713 26.0782 13.5363V15.4893Z" fill="white"/>
<path d="M26.0782 15.4893C26.0782 17.423 25.9094 19.4145 25.8934 19.5973C25.8285 20.1009 25.5647 21.2578 25.1431 21.716C24.4932 22.4311 23.8255 22.502 23.338 22.5536C23.2791 22.5597 23.2245 22.5657 23.1752 22.5719C19.8378 22.8132 14.8236 22.8503 14.5926 22.8516C14.3335 22.8479 8.17855 22.7537 6.24702 22.5743C6.14806 22.5581 6.04112 22.5458 5.92842 22.533C5.35673 22.4675 4.57416 22.3779 3.9724 21.716L3.95826 21.7009C3.54408 21.2694 3.2878 20.1875 3.22269 19.6033C3.21054 19.4651 3.0373 17.4501 3.0373 15.4893V13.5363C3.0373 11.6047 3.20576 9.61547 3.22209 9.42888C3.29955 8.83568 3.56837 7.74885 3.9724 7.30957C4.64226 6.5728 5.34856 6.49116 5.81571 6.4372L5.82683 6.43591C5.86725 6.43122 5.90515 6.42682 5.94037 6.42226C9.29247 6.18215 14.2758 6.14442 14.5509 6.14234L14.5578 6.14229C14.739 6.14348 19.7874 6.17972 23.1433 6.42226C23.1837 6.42734 23.2278 6.43242 23.2751 6.43787L23.2779 6.43819C23.7584 6.49295 24.4846 6.57579 25.1511 7.28667L25.1573 7.29324C25.5714 7.72475 25.8277 8.82553 25.8928 9.42152C25.9044 9.55194 26.0782 11.5713 26.0782 13.5363V15.4893Z" fill="white"/>
<path d="M18.5726 13.3189L12.8065 10.1639C12.475 9.98249 12.0831 9.98926 11.7581 10.1818C11.433 10.3746 11.239 10.7151 11.239 11.093V17.3488C11.239 17.725 11.4318 18.0649 11.7548 18.2578C11.9234 18.3586 12.1104 18.4092 12.2978 18.4092C12.4694 18.4092 12.6415 18.3667 12.7998 18.2815L18.5661 15.1809C18.9084 14.9967 19.122 14.6409 19.1236 14.252C19.125 13.8631 18.9139 13.5057 18.5726 13.3189ZM12.7685 16.5619V11.8863L17.078 14.2444L12.7685 16.5619Z" fill="#0B8297"/>
</svg>
